<?xml version="1.0" encoding="UTF-8"?>
<svg version="1.1" xmlns="http://www.w3.org/2000/svg" width="182" height="182">
<path d="M0 0 C60.06 0 120.12 0 182 0 C182 60.06 182 120.12 182 182 C121.94 182 61.88 182 0 182 C0 121.94 0 61.88 0 0 Z " fill="#FEFEFE" transform="translate(0,0)"/>
<path d="M0 0 C10.59601173 -0.12504425 21.12747359 0.18143547 31.70776367 0.74462891 C34.19481999 0.87538485 36.68226465 0.99457713 39.16992188 1.11328125 C64.54286415 2.39248729 64.54286415 2.39248729 71 8 C73.53604144 11.80406216 73.60198813 13.48508904 73 18 C70.06662899 22.93615536 66.32542855 25.8444694 61 28 C61.97839844 28.23783203 61.97839844 28.23783203 62.9765625 28.48046875 C69.35310316 30.18276058 74.57266843 31.9404972 78.1328125 37.89453125 C79.90820279 42.20505091 79.66808151 46.75972666 78.34765625 51.1875 C76.11587615 56.24492444 73.01967152 59.59544533 68 62 C57.00880226 66.1290219 45.64203755 67.25095467 34.04736328 68.43798828 C30.97676014 68.75237947 27.90833461 69.08364137 24.83984375 69.41796875 C22.87249868 69.62856715 20.90505388 69.83823645 18.9375 70.046875 C18.02806641 70.14369568 17.11863281 70.24051636 16.18164062 70.340271 C11.76565653 70.79045928 7.44642094 71.11134305 3 71 C6.32486381 68.25945632 9.83057886 66.57623951 13.75 64.8125 C14.92046875 64.28269531 16.0909375 63.75289062 17.296875 63.20703125 C18.18890625 62.80871094 19.0809375 62.41039062 20 62 C19.46287933 51.37327422 17.78541555 41.08622565 15.9375 30.625 C15.37736576 27.45164986 14.82509457 24.27707076 14.27734375 21.1015625 C14.14923813 20.39101715 14.02113251 19.6804718 13.8891449 18.94839478 C13.13028104 14.54531731 12.88145723 10.44517247 13 6 C12.39671875 5.81824219 11.7934375 5.63648438 11.171875 5.44921875 C10.37265625 5.19785156 9.5734375 4.94648437 8.75 4.6875 C7.96109375 4.44386719 7.1721875 4.20023438 6.359375 3.94921875 C3.86743107 2.94666515 2.11010853 1.64097924 0 0 Z " fill="#02A3E8" transform="translate(87,54)"/>
<path d="M0 0 C0.80058838 0.00563965 1.60117676 0.0112793 2.42602539 0.01708984 C13.23429599 0.23862923 20.99478191 3.87549926 30.25 9.3125 C30.58 7.3325 30.91 5.3525 31.25 3.3125 C33.14355469 3.55322266 33.14355469 3.55322266 35.25 4.3125 C36.25488281 6.12255859 36.25488281 6.12255859 36.953125 8.4609375 C37.2109375 9.30140625 37.46875 10.141875 37.734375 11.0078125 C37.98703125 11.89210938 38.2396875 12.77640625 38.5 13.6875 C38.9021875 15.00234375 38.9021875 15.00234375 39.3125 16.34375 C41.25 22.80867347 41.25 22.80867347 41.25 26.3125 C37.70970129 25.01376608 34.77988067 23.46372134 31.6875 21.3125 C26.61728194 17.79761746 23.55329632 16.02598653 17.25 16.3125 C16.83190799 19.14401973 16.83190799 19.14401973 17.25 22.3125 C21.30938501 26.47806611 26.12832169 27.8913663 31.5 29.6875 C47.80240944 35.4189731 47.80240944 35.4189731 51.43359375 41.1953125 C53.28503618 45.99666082 53.19218197 50.99413885 51.2578125 55.75390625 C46.94740499 62.95009506 40.65712603 66.49780105 33.0625 69.625 C17.06057023 73.53658283 1.89806572 71.69159842 -12.23828125 63.265625 C-12.98658203 62.79382813 -12.98658203 62.79382813 -13.75 62.3125 C-13.75 64.9525 -13.75 67.5925 -13.75 70.3125 C-14.41 70.3125 -15.07 70.3125 -15.75 70.3125 C-17.08852796 66.68939672 -18.41993718 63.06371856 -19.75 59.4375 C-20.1315625 58.40496094 -20.513125 57.37242188 -20.90625 56.30859375 C-21.44765625 54.82939453 -21.44765625 54.82939453 -22 53.3203125 C-22.33515625 52.40910645 -22.6703125 51.49790039 -23.015625 50.55908203 C-23.75 48.3125 -23.75 48.3125 -23.75 46.3125 C-20.28080009 46.9599774 -17.83757953 48.36262456 -14.875 50.25 C-8.04819113 54.40197733 -3.62101968 55.98993042 4.25 54.3125 C6.35938785 53.28828739 6.35938785 53.28828739 7.25 51.3125 C7.83345476 48.35503508 7.83345476 48.35503508 7.25 45.3125 C3.94187798 40.88712306 -0.48516796 39.68945535 -5.5 37.9375 C-13.17661349 35.10110561 -19.2401512 32.2610799 -24.75 26.0625 C-26.304498 21.78763049 -26.38499002 17.80072488 -25.75 13.3125 C-22.90994843 7.29159067 -18.10424351 3.71580596 -12.0703125 1.19140625 C-7.96995305 0.10601698 -4.22298737 -0.03097005 0 0 Z " fill="#24B14E" transform="translate(38.75,53.6875)"/>
<path d="M0 0 C2 2 2 2 2.1875 4.625 C0.36386461 9.80796375 -3.60985625 12.826208 -8 16 C-8.66 16 -9.32 16 -10 16 C-9.94014621 13.70759993 -9.85140973 11.41593794 -9.75 9.125 C-9.70359375 7.84882812 -9.6571875 6.57265625 -9.609375 5.2578125 C-9 2 -9 2 -7.1171875 0.5703125 C-4.60573171 -0.10620511 -2.58895398 -0.27252147 0 0 Z " fill="#EEF8FC" transform="translate(131,91)"/>
<path d="M0 0 C3.83032799 0.29464061 6.35234913 0.53045312 9.5 2.8125 C11 5 11 5 11.0625 7.0625 C9.55066583 9.81937407 7.82081083 10.68799496 5 12 C3.68 12 2.36 12 1 12 C0.67 8.04 0.34 4.08 0 0 Z " fill="#F3F9FD" transform="translate(123,64)"/>
</svg>
